<svg class="diagram-root" style="background: #f5f6f6" xmlns="http://www.w3.org/2000/svg" xmlns:xlink="http://www.w3.org/1999/xlink"><style>.diagram-root { font-family: "Helvetica Neue", sans-serif; font-size: 12px; } .t { overflow: visible; } .t-bg { y: 40; fill: #fff;   } .th { fill: #005aa0;   } .tht { fill: #fff; font-size: 14px;  } .tf { fill: #323c46; overflow: visible; } .tf.pk { fill: #005aa0; font-weight: bold; } .tf.fk { font-weight: bold; } .ty { fill: #adb1b5; font-weight: normal; text-anchor: end; } .r { fill: transparent; stroke: #c3c3c3; stroke-width: 1; } .l { stroke: 1; } .i { fill: #c2c7ce; stroke: #c2c7ce; } .i.ix { fill: #afb3b6; stroke: #000; } .fa { fill: transparent; overflow: visible; } .fa .bg.hover { fill: #f7f7f7; } .c { cy: 12; r: 4; stroke: #d2d2dc; fill: #d2d2dc; } .hr { fill: transparent; stroke: #323c46; stroke-opacity: 0.035; stroke-width: 13; } .dc { stroke: #fa5a3c; fill: #fa5a3c; } .x { stroke: white; stroke-width: 1; } .hl .th { fill: #1b9bff; } .hl .tht {  } .fhl .bg { fill: #e7f4ff; } .fhls .bg {  } .r.hl { stroke: #1b9bff; } .dim { opacity: 0.25; }</style><g class="drawing-wrapper" transform="translate(-76, 3) scale(1,1)"><g class="rs"><path d="M 400 252 m -1, 0 a 1,1 0 1,0 2,0 a 1,1 0 1,0 -2,0 M 400 252 m -0.5, 0 a 0.5,0.5 0 1,0 1,0 a 0.5,0.5 0 1,0 -1,0  M400 252 L400 252 388 252 M 400 258 m -1, 0 a 1,1 0 1,0 2,0 a 1,1 0 1,0 -2,0 M 400 258 m -0.5, 0 a 0.5,0.5 0 1,0 1,0 a 0.5,0.5 0 1,0 -1,0  M400 258 L400 258 393 252 400 246 M 400 246 m -1, 0 a 1,1 0 1,0 2,0 a 1,1 0 1,0 -2,0 M 400 246 m -0.5, 0 a 0.5,0.5 0 1,0 1,0 a 0.5,0.5 0 1,0 -1,0  M388 252 Q 362.18 252, 336.36 168 T 284.71 84 M 272.71 84 m -1, 0 a 1,1 0 1,0 2,0 a 1,1 0 1,0 -2,0 M 272.71 84 m -0.5, 0 a 0.5,0.5 0 1,0 1,0 a 0.5,0.5 0 1,0 -1,0  M272.71 84 L272.71 84 284.71 84 M278.71 90 L278.71 90 278.71 78" id="h842692290" class="r"></path><path d="M 702 432 m -1, 0 a 1,1 0 1,0 2,0 a 1,1 0 1,0 -2,0 M 702 432 m -0.5, 0 a 0.5,0.5 0 1,0 1,0 a 0.5,0.5 0 1,0 -1,0  M702 432 L702 432 690 432 M 702 438 m -1, 0 a 1,1 0 1,0 2,0 a 1,1 0 1,0 -2,0 M 702 438 m -0.5, 0 a 0.5,0.5 0 1,0 1,0 a 0.5,0.5 0 1,0 -1,0  M702 438 L702 438 695 432 702 426 M 702 426 m -1, 0 a 1,1 0 1,0 2,0 a 1,1 0 1,0 -2,0 M 702 426 m -0.5, 0 a 0.5,0.5 0 1,0 1,0 a 0.5,0.5 0 1,0 -1,0  M690 432 Q 655.52 432, 621.04 317 T 552.07 202 M 540.07 202 m -1, 0 a 1,1 0 1,0 2,0 a 1,1 0 1,0 -2,0 M 540.07 202 m -0.5, 0 a 0.5,0.5 0 1,0 1,0 a 0.5,0.5 0 1,0 -1,0  M540.07 202 L540.07 202 552.07 202 M546.07 208 L546.07 208 546.07 196" id="h916650742" class="r"></path></g><g class="hrs"></g><g class="ts"><svg width="174.71" height="275" x="98" y="27" id="h1537667952" class="t"><rect height="40" width="174.71" class="th"></rect><text x="13" y="25" class="tht">User</text><rect height="235" width="174.71" class="t-bg"></rect><text x="13" y="61" class="tf pk">ID<tspan x="161.71" class="ty">bigserial</tspan></text><path d="M7,14A2,2 0 0,1 5,12A2,2 0 0,1 7,10A2,2 0 0,1 9,12A2,2 0 0,1 7,14M12.65,10C11.83,7.67 9.61,6 7, 6A6, 6 0 0, 0 1, 12A6, 6 0 0, 0 7, 18C9.61, 18 11.83, 16.33 12.65, 14H17V18H21V14H23V10H12.65Z" class="i pk" transform="translate(97.02054687500001, 48) scale(0.65)"></path><text x="13" y="86" class="tf">Email<tspan x="161.71" class="ty">varchar(255)</tspan></text><text x="13" y="111" class="tf">Password<tspan x="161.71" class="ty">bytea</tspan></text><text x="13" y="136" class="tf">GivenName<tspan x="161.71" class="ty">varchar(50)</tspan></text><text x="13" y="161" class="tf">MiddleName<tspan x="161.71" class="ty">varchar(50)</tspan></text><text x="13" y="186" class="tf">FamilyName<tspan x="161.71" class="ty">varchar(50)</tspan></text><text x="13" y="211" class="tf">DateCreated<tspan x="161.71" class="ty">date</tspan></text><text x="13" y="236" class="tf">DateUpdated<tspan x="161.71" class="ty">date</tspan></text><text x="13" y="261" class="tf">LastLogin<tspan x="161.71" class="ty">date</tspan></text></svg><svg width="140.07" height="175" x="400" y="145" id="h1903237708" class="t"><rect height="40" width="140.07" class="th"></rect><text x="13" y="25" class="tht">Category</text><rect height="135" width="140.07" class="t-bg"></rect><text x="13" y="61" class="tf pk">ID<tspan x="127.07" class="ty">bigserial</tspan></text><path d="M7,14A2,2 0 0,1 5,12A2,2 0 0,1 7,10A2,2 0 0,1 9,12A2,2 0 0,1 7,14M12.65,10C11.83,7.67 9.61,6 7, 6A6, 6 0 0, 0 1, 12A6, 6 0 0, 0 7, 18C9.61, 18 11.83, 16.33 12.65, 14H17V18H21V14H23V10H12.65Z" class="i pk" transform="translate(62.38054687499999, 48) scale(0.65)"></path><text x="13" y="86" class="tf">Title<tspan x="127.07" class="ty">varchar(255)</tspan></text><text x="13" y="111" class="tf fk">UserID<tspan x="127.07" class="ty">bigserial</tspan></text><text x="13" y="136" class="tf">DateCreated<tspan x="127.07" class="ty">date</tspan></text><text x="13" y="161" class="tf">DateUpdated<tspan x="127.07" class="ty">date</tspan></text></svg><svg width="151.38" height="275" x="702" y="225" id="h2880153774" class="t"><rect height="40" width="151.38" class="th"></rect><text x="13" y="25" class="tht">Task</text><rect height="235" width="151.38" class="t-bg"></rect><text x="13" y="61" class="tf pk">ID<tspan x="138.38" class="ty">bigserial</tspan></text><path d="M7,14A2,2 0 0,1 5,12A2,2 0 0,1 7,10A2,2 0 0,1 9,12A2,2 0 0,1 7,14M12.65,10C11.83,7.67 9.61,6 7, 6A6, 6 0 0, 0 1, 12A6, 6 0 0, 0 7, 18C9.61, 18 11.83, 16.33 12.65, 14H17V18H21V14H23V10H12.65Z" class="i pk" transform="translate(73.690546875, 48) scale(0.65)"></path><text x="13" y="86" class="tf">Title<tspan x="138.38" class="ty">varchar(255)</tspan></text><text x="13" y="111" class="tf">Description<tspan x="138.38" class="ty">text</tspan></text><text x="13" y="136" class="tf">Due<tspan x="138.38" class="ty">date</tspan></text><text x="13" y="161" class="tf">Priority<tspan x="138.38" class="ty">enum</tspan></text><text x="13" y="186" class="tf">Completed<tspan x="138.38" class="ty">boolean</tspan></text><text x="13" y="211" class="tf fk">CategoryID<tspan x="138.38" class="ty">bigserial</tspan></text><text x="13" y="236" class="tf">DateCreated<tspan x="138.38" class="ty">date</tspan></text><text x="13" y="261" class="tf">DateUpdated<tspan x="138.38" class="ty">date</tspan></text></svg></g></g><text class="qdbd-link" x="10" y="20">www.quickdatabasediagrams.com</text></svg>