<svg width="171" height="47" viewBox="0 0 171 47" fill="none" xmlns="http://www.w3.org/2000/svg">
<g id="Layer_1" clip-path="url(#clip0_523_1022)">
<path id="Vector" d="M138.127 8.19923C138.127 8.10239 138.143 8.00555 138.175 7.90871C138.321 7.15012 138.724 6.55294 139.386 6.14943C139.531 6.06873 139.709 6.10101 139.789 6.24627C139.87 6.39154 139.838 6.58522 139.693 6.66592C139.418 6.82732 139.192 7.03714 139.031 7.31152C138.417 8.27993 138.773 9.555 139.789 10.0715C140.951 10.6687 142.34 9.97464 142.598 8.69957C142.759 7.90871 142.388 7.08556 141.694 6.66592C141.549 6.58522 141.5 6.47224 141.533 6.31084C141.581 6.11715 141.791 6.02031 141.968 6.11715C142.114 6.21399 142.259 6.31084 142.388 6.42382C142.856 6.84346 143.13 7.35994 143.211 7.97327C143.324 8.87711 143.034 9.65184 142.34 10.249C141.92 10.6202 141.436 10.8139 140.871 10.8623H140.838H140.516C140.516 10.8623 140.5 10.8623 140.483 10.8623C140.37 10.8462 140.241 10.8301 140.128 10.8139C139.144 10.6202 138.321 9.76482 138.159 8.76413C138.159 8.66729 138.127 8.57045 138.127 8.47361V8.15081V8.19923Z" fill="#FE3939"/>
<path id="Vector_2" d="M140.968 7.03704V7.94089C140.968 8.10229 140.887 8.21527 140.742 8.24755C140.564 8.29597 140.387 8.18299 140.37 8.00545C140.37 7.98931 140.37 7.95703 140.37 7.94089V6.13319C140.37 5.97179 140.467 5.84267 140.613 5.81039C140.774 5.77811 140.935 5.89109 140.952 6.05249C140.952 6.08477 140.952 6.10091 140.952 6.13319V7.0209L140.968 7.03704Z" fill="#FE3939"/>
<g id="Group">
<path id="Vector_3" d="M54.1501 21.7407C54.1501 13.4608 59.1536 7.6181 67.4819 7.6181C75.8102 7.6181 80.7168 13.3963 80.7168 21.6923C80.7168 29.9883 75.7133 35.8149 67.4335 35.8149C59.1536 35.8149 54.1501 30.0851 54.1501 21.7407ZM75.4067 21.7407C75.4067 16.1724 72.905 11.8952 67.4819 11.8952C62.0588 11.8952 59.4602 16.1724 59.4602 21.7407C59.4602 27.309 61.962 31.5862 67.4819 31.5862C73.0018 31.5862 75.4067 27.2606 75.4067 21.7407Z" fill="white"/>
<path id="Vector_4" d="M83.6866 28.1483C83.6866 22.2087 88.1736 20.4333 94.791 19.1905C98.9552 18.4158 101.505 17.8832 101.505 15.2846C101.505 13.364 100.359 11.7499 96.4535 11.7499C91.8213 11.7499 90.4171 13.2026 90.1427 16.7534H84.9294C85.1877 11.6531 88.5287 7.63422 96.6472 7.63422C102.119 7.63422 106.493 9.92611 106.493 16.8018V28.9876C106.493 30.9083 106.751 31.9089 107.735 31.9089C107.897 31.9089 108.042 31.9089 108.365 31.8605V34.9917C107.477 35.2015 106.589 35.2984 105.766 35.2984C103.216 35.2984 101.86 34.3138 101.554 31.2795H101.457C99.7299 34.0394 96.7117 35.7664 92.3862 35.7664C87.0761 35.7664 83.6866 32.6998 83.6866 28.1644V28.1483ZM101.505 24.662V20.853C100.666 21.6277 98.3741 22.2087 95.6787 22.7736C90.982 23.7098 89.0129 25.0171 89.0129 27.7771C89.0129 30.2788 90.3687 31.6346 93.5483 31.6346C98.132 31.6346 101.521 29.2942 101.521 24.6459L101.505 24.662Z" fill="white"/>
<path id="Vector_5" d="M110.931 26.1792H116.096C116.306 29.2458 118.178 31.6507 123.133 31.6507C127.62 31.6507 128.814 29.6654 128.814 27.7448C128.814 24.4038 125.28 24.0487 121.826 23.3224C117.194 22.2249 111.867 20.8691 111.867 15.3492C111.867 10.7654 115.563 7.68262 121.971 7.68262C129.266 7.68262 132.753 11.5885 133.124 16.1723H127.959C127.588 14.1387 126.506 11.7983 122.068 11.7983C118.63 11.7983 117.177 13.1541 117.177 15.1393C117.177 17.8993 120.147 18.1575 123.892 18.9968C128.782 20.1428 134.108 21.547 134.108 27.4865C134.108 32.6514 130.154 35.7664 123.165 35.7664C115.095 35.7664 111.076 31.6023 110.915 26.1792H110.931Z" fill="white"/>
<path id="Vector_6" d="M138.127 35.0241V12.9121H143.227V35.0241H138.127Z" fill="white"/>
<path id="Vector_7" d="M147.44 26.1792H152.153C152.266 26.1792 152.347 26.2599 152.363 26.3729C152.637 29.3588 154.542 31.6507 159.384 31.6507C163.871 31.6507 165.065 29.6654 165.065 27.7448C165.065 24.4038 161.53 24.0487 158.076 23.3224C153.444 22.2249 148.118 20.8691 148.118 15.3492C148.118 10.7654 151.814 7.68262 158.222 7.68262C165.372 7.68262 168.874 11.4433 169.342 15.9141C169.342 16.0593 169.245 16.1723 169.1 16.1723H164.403C164.29 16.1723 164.193 16.0916 164.177 15.9786C163.774 13.9934 162.612 11.7983 158.318 11.7983C154.881 11.7983 153.428 13.1541 153.428 15.1393C153.428 17.8993 156.398 18.1575 160.142 18.9968C165.033 20.1428 170.359 21.547 170.359 27.4865C170.359 32.6514 166.405 35.7664 159.416 35.7664C151.459 35.7664 147.456 31.7314 147.182 26.4374C147.182 26.3083 147.279 26.1792 147.424 26.1792H147.44Z" fill="white"/>
</g>
<g id="Group_2">
<path id="Vector_8" d="M61.7522 40.9636C61.7522 40.9636 61.7844 40.9152 61.8006 40.8829C61.8006 40.8506 61.849 40.8345 61.8813 40.8345C61.9136 40.8345 61.962 40.8184 62.0265 40.8022C62.0911 40.8022 62.1718 40.8022 62.2848 40.8022C62.3332 40.8022 62.3978 40.8022 62.4785 40.8022C62.5592 40.8022 62.6399 40.8022 62.7367 40.8022C62.8335 40.8022 62.9304 40.8022 63.0272 40.8022C63.1241 40.8022 63.2209 40.8022 63.3016 40.7861C63.3016 40.8506 63.3177 40.8991 63.3177 40.9313C63.3177 41.0282 63.2855 41.0766 63.2209 41.0927C62.9949 41.125 62.8497 41.1734 62.769 41.2219C62.6883 41.2703 62.656 41.351 62.656 41.4317C62.656 41.4317 62.656 41.5285 62.656 41.6738C62.656 41.819 62.6721 42.0934 62.7044 42.4646C62.7367 42.8359 62.7528 43.3362 62.769 43.9495C62.8013 44.5629 62.8335 45.3376 62.8658 46.2576C62.8658 46.3705 62.9142 46.4674 62.9949 46.5158C63.0756 46.5642 63.2209 46.6127 63.4469 46.6611C63.4792 46.6611 63.4953 46.6772 63.5114 46.7095C63.5114 46.7418 63.5276 46.7741 63.5276 46.8063C63.5276 46.8386 63.5276 46.887 63.5114 46.9516C63.2855 46.9516 63.0918 46.9355 62.9142 46.9193C62.7367 46.9032 62.5753 46.9193 62.4139 46.9193C62.3493 46.9193 62.2686 46.9193 62.1718 46.9193C62.075 46.9193 61.9781 46.9193 61.8813 46.9193C61.7844 46.9193 61.6715 46.9193 61.5746 46.9193C61.4778 46.9193 61.3809 46.9193 61.3164 46.9355C61.3164 46.8709 61.3002 46.8225 61.3002 46.7902C61.3002 46.6934 61.3325 46.6449 61.3971 46.6449C61.6392 46.5965 61.8167 46.5481 61.9136 46.4997C62.0104 46.4512 62.0427 46.3705 62.0427 46.2414C62.0427 46.2253 62.0427 46.1123 62.0427 45.9025C62.0427 45.6927 62.0265 45.4344 62.0104 45.1278C62.0104 44.8211 61.9781 44.4822 61.962 44.1271C61.962 43.772 61.9297 43.433 61.9136 43.1264C61.9136 42.8036 61.8813 42.5453 61.8651 42.3032C61.8651 42.0773 61.849 41.932 61.849 41.8836L59.7992 46.8386C59.7992 46.8386 59.7508 46.9355 59.7346 46.9677C59.7185 47 59.6862 47.0162 59.6378 47.0162C59.5894 47.0162 59.5732 47.0162 59.5571 47.0162L57.2652 41.7545C57.2652 41.7545 57.2652 41.9643 57.2491 42.2064C57.2491 42.4485 57.2329 42.739 57.2168 43.0618C57.2168 43.4008 57.1845 43.7397 57.1684 44.1109C57.1522 44.4822 57.1361 44.8211 57.1199 45.1278C57.1199 45.4344 57.0877 45.7088 57.0877 45.9186C57.0877 46.1284 57.0877 46.2414 57.0877 46.2576C57.0877 46.4512 57.2975 46.5804 57.7333 46.6611C57.7978 46.6611 57.8301 46.7095 57.8301 46.8063C57.8301 46.8386 57.8301 46.887 57.814 46.9516C57.6526 46.9516 57.475 46.9355 57.3136 46.9193C57.1522 46.9193 57.007 46.9193 56.8778 46.9193C56.781 46.9193 56.6357 46.9193 56.4743 46.9193C56.3129 46.9193 56.1515 46.9355 55.9901 46.9516C55.9901 46.887 55.974 46.8386 55.974 46.8063C55.974 46.7256 56.0063 46.6772 56.0708 46.6611C56.2322 46.6288 56.3775 46.5804 56.4743 46.5319C56.5712 46.4674 56.6357 46.3867 56.6519 46.2576C56.6519 46.2091 56.6519 46.0477 56.668 45.7895C56.668 45.5313 56.7003 45.2246 56.7164 44.8695C56.7164 44.5144 56.7487 44.1271 56.7649 43.7397C56.781 43.3362 56.7971 42.965 56.8133 42.626C56.8133 42.2871 56.8456 41.9966 56.8456 41.7868C56.8456 41.5608 56.8456 41.4478 56.8456 41.4478C56.8456 41.351 56.8133 41.2703 56.7326 41.2219C56.6519 41.1734 56.5066 41.125 56.2807 41.0927C56.2161 41.0927 56.1838 41.0282 56.1838 40.9313C56.1838 40.8991 56.1838 40.8506 56.2 40.7861C56.2807 40.7861 56.3775 40.7861 56.4743 40.8022C56.5712 40.8022 56.6842 40.8022 56.781 40.8022C56.8778 40.8022 56.9747 40.8022 57.0715 40.8022C57.1684 40.8022 57.2329 40.8022 57.2975 40.8022C57.4105 40.8022 57.4912 40.8022 57.5557 40.8022C57.6203 40.8022 57.6687 40.8184 57.701 40.8345C57.7333 40.8506 57.7655 40.8668 57.7817 40.8829C57.7817 40.9152 57.814 40.9313 57.8301 40.9636L59.8315 45.6442L61.736 40.9636H61.7522Z" fill="#FE3939"/>
<path id="Vector_9" d="M68.0144 44.6436H65.9162L65.319 46.1607C65.319 46.1607 65.2706 46.306 65.2706 46.3544C65.2706 46.4835 65.4643 46.5804 65.8355 46.6288C65.8839 46.6288 65.9162 46.6449 65.9324 46.6772C65.9324 46.7095 65.9485 46.7418 65.9485 46.7741C65.9485 46.8063 65.9485 46.8548 65.9324 46.9193C65.771 46.9193 65.5934 46.9032 65.3997 46.887C65.2061 46.8709 65.0285 46.887 64.851 46.887C64.7219 46.887 64.5927 46.887 64.4636 46.887C64.3345 46.887 64.1892 46.9032 64.044 46.9193C64.044 46.8709 64.0278 46.8225 64.0278 46.7741C64.0278 46.7256 64.0278 46.6934 64.044 46.6611C64.044 46.6288 64.0924 46.6127 64.1408 46.6127C64.3345 46.5804 64.4798 46.5481 64.5766 46.4997C64.6734 46.4513 64.738 46.3867 64.7864 46.2737L67.046 40.8345C67.0945 40.7215 67.1429 40.6731 67.2236 40.6731C67.2559 40.6731 67.2881 40.6731 67.3366 40.6892L69.6123 46.2899C69.6446 46.3706 69.7414 46.4513 69.8706 46.4997C69.9997 46.5481 70.1288 46.5804 70.2579 46.5965C70.2902 46.5965 70.3225 46.6288 70.3548 46.6449C70.3709 46.6611 70.387 46.7095 70.387 46.7579C70.387 46.7902 70.387 46.8386 70.3709 46.9032C70.1772 46.9032 69.9674 46.887 69.7737 46.8709C69.58 46.8709 69.4025 46.8709 69.2249 46.8709C69.0474 46.8709 68.8537 46.8709 68.6278 46.8709C68.4018 46.8709 68.192 46.887 68.0144 46.9032C68.0144 46.8386 67.9983 46.7902 67.9983 46.7579C67.9983 46.7095 67.9983 46.6611 68.0306 46.6449C68.0629 46.6288 68.079 46.6127 68.0951 46.6127C68.2565 46.5804 68.3857 46.5481 68.4825 46.4997C68.5793 46.4513 68.6278 46.4028 68.6278 46.3221C68.6278 46.2899 68.6278 46.2414 68.5955 46.1769L67.9983 44.6274L68.0144 44.6436ZM67.8692 44.2562L66.9976 41.9643L66.0938 44.2562H67.8692Z" fill="#FE3939"/>
<path id="Vector_10" d="M75.7133 45.3859V41.4639C75.7133 41.3348 75.6649 41.2218 75.568 41.1734C75.4712 41.1249 75.2937 41.0765 75.0677 41.0442C75.0031 41.0442 74.9709 40.9797 74.9709 40.8828C74.9709 40.8506 74.9709 40.8021 74.987 40.7376C75.1484 40.7376 75.3098 40.7537 75.4712 40.7699C75.6326 40.7699 75.794 40.7699 75.9231 40.7699C76.0522 40.7699 76.1975 40.7699 76.3589 40.7699C76.5042 40.7699 76.6494 40.7537 76.7947 40.7376C76.7947 40.8021 76.8108 40.8506 76.8108 40.8828C76.8108 40.9797 76.7785 41.0281 76.714 41.0442C76.5042 41.0765 76.3589 41.1249 76.2782 41.1734C76.1975 41.2218 76.1652 41.3186 76.1652 41.4477V46.9677C76.1652 46.9677 76.1329 46.9677 76.1007 46.9677C76.0684 46.9677 76.0522 46.9677 76.02 46.9677C75.9715 46.9677 75.9393 46.9677 75.8908 46.9354C75.8424 46.9031 75.8101 46.8708 75.7617 46.8063L71.9527 41.7867V46.2091C71.9527 46.3382 72.0011 46.4189 72.0818 46.4673C72.1625 46.5157 72.34 46.5642 72.5821 46.6126C72.6467 46.6126 72.679 46.6771 72.679 46.7578C72.679 46.7901 72.679 46.8385 72.6628 46.9031C72.5014 46.9031 72.3562 46.887 72.1948 46.8708C72.0334 46.8547 71.8881 46.8708 71.7428 46.8708C71.6137 46.8708 71.4685 46.8708 71.3071 46.8708C71.1457 46.8708 70.9843 46.887 70.8551 46.9031C70.8551 46.8385 70.839 46.7901 70.839 46.7578C70.839 46.6771 70.8713 46.6287 70.9358 46.6126C71.1618 46.5642 71.3071 46.5157 71.3878 46.4673C71.4685 46.4189 71.5007 46.3382 71.5007 46.2091V41.3832C71.5007 41.2863 71.4685 41.2056 71.3878 41.1572C71.3232 41.1088 71.1618 41.0604 70.9358 41.0281C70.8713 41.0281 70.839 40.9635 70.839 40.8667C70.839 40.8344 70.839 40.8021 70.839 40.786C70.839 40.7699 70.839 40.7376 70.839 40.7214C70.9681 40.7214 71.0811 40.7376 71.1941 40.7537C71.2909 40.7537 71.4039 40.7537 71.5169 40.7537C71.6299 40.7537 71.7267 40.7537 71.8235 40.7537C72.0011 40.7537 72.1302 40.7537 72.1786 40.7699C72.2432 40.7699 72.2916 40.8183 72.3239 40.8667L75.6972 45.3536L75.7133 45.3859Z" fill="#FE3939"/>
<path id="Vector_11" d="M80.7006 44.6436H78.6024L78.0052 46.1607C78.0052 46.1607 77.9568 46.306 77.9568 46.3544C77.9568 46.4835 78.1505 46.5804 78.5217 46.6288C78.5701 46.6288 78.6024 46.6449 78.6185 46.6772C78.6185 46.7095 78.6347 46.7418 78.6347 46.7741C78.6347 46.8063 78.6347 46.8548 78.6185 46.9193C78.4571 46.9193 78.2796 46.9032 78.0859 46.887C77.8922 46.8709 77.7147 46.887 77.5371 46.887C77.408 46.887 77.2789 46.887 77.1498 46.887C77.0207 46.887 76.8754 46.9032 76.7301 46.9193C76.7301 46.8709 76.714 46.8225 76.714 46.7741C76.714 46.7256 76.714 46.6934 76.7301 46.6611C76.7301 46.6288 76.7785 46.6127 76.827 46.6127C77.0207 46.5804 77.1659 46.5481 77.2628 46.4997C77.3596 46.4513 77.4242 46.3867 77.4726 46.2737L79.7322 40.8345C79.7806 40.7215 79.829 40.6731 79.9097 40.6731C79.942 40.6731 79.9743 40.6731 80.0227 40.6892L82.2985 46.2899C82.3308 46.3706 82.4276 46.4513 82.5567 46.4997C82.6858 46.5481 82.815 46.5804 82.9441 46.5965C82.9764 46.5965 83.0086 46.6288 83.0409 46.6449C83.0571 46.6611 83.0732 46.7095 83.0732 46.7579C83.0732 46.7902 83.0732 46.8386 83.0571 46.9032C82.8634 46.9032 82.6536 46.887 82.4599 46.8709C82.2662 46.8709 82.0886 46.8709 81.9111 46.8709C81.7336 46.8709 81.5399 46.8709 81.3139 46.8709C81.088 46.8709 80.8781 46.887 80.7006 46.9032C80.7006 46.8386 80.6845 46.7902 80.6845 46.7579C80.6845 46.7095 80.6845 46.6611 80.7167 46.6449C80.749 46.6288 80.7652 46.6127 80.7813 46.6127C80.9427 46.5804 81.0718 46.5481 81.1687 46.4997C81.2655 46.4513 81.3139 46.4028 81.3139 46.3221C81.3139 46.2899 81.3139 46.2414 81.2816 46.1769L80.6845 44.6274L80.7006 44.6436ZM80.5553 44.2562L79.6838 41.9643L78.7799 44.2562H80.5553Z" fill="#FE3939"/>
<path id="Vector_12" d="M88.1896 46.8386C87.9152 46.887 87.6246 46.9354 87.3341 46.9516C87.0436 46.9838 86.6885 47 86.3012 47C85.7685 47 85.3005 46.9193 84.897 46.7579C84.4935 46.5965 84.1707 46.3705 83.9124 46.0961C83.6542 45.8218 83.4605 45.4828 83.3314 45.0955C83.2023 44.7081 83.1377 44.2884 83.1377 43.8365C83.1377 43.4653 83.2023 43.0941 83.3314 42.7067C83.4605 42.3355 83.6542 41.9965 83.9124 41.6899C84.1707 41.3832 84.4935 41.1411 84.897 40.9474C85.2843 40.7538 85.7524 40.6569 86.2689 40.6569C86.4626 40.6569 86.6401 40.6569 86.8015 40.6569C86.979 40.6569 87.1404 40.6892 87.318 40.7053C87.4955 40.7215 87.6569 40.7538 87.8345 40.8022C88.012 40.8345 88.1896 40.8829 88.3994 40.9313C88.3994 41.1573 88.4317 41.3832 88.4639 41.6092C88.4962 41.8513 88.5446 42.0772 88.5931 42.3032C88.5931 42.3032 88.5608 42.3194 88.5124 42.3355C88.4639 42.3516 88.4478 42.3355 88.4155 42.3355C88.3187 42.3355 88.2541 42.2871 88.2218 42.2064C88.1089 41.7867 87.9152 41.4801 87.6569 41.3025C87.3825 41.125 87.0113 41.0281 86.511 41.0281C86.1075 41.0281 85.7685 41.0927 85.4619 41.2218C85.1552 41.3509 84.9131 41.5285 84.7194 41.7544C84.5258 41.9804 84.3805 42.2548 84.2675 42.5776C84.1707 42.9004 84.1222 43.2393 84.1222 43.6106C84.1222 44.0463 84.1868 44.4337 84.3159 44.8049C84.445 45.16 84.6226 45.4828 84.8485 45.7411C85.0745 45.9993 85.3328 46.2091 85.6394 46.3544C85.9461 46.4996 86.2689 46.5642 86.624 46.5642C86.8015 46.5642 86.9952 46.5642 87.1727 46.5319C87.3503 46.4996 87.5117 46.4835 87.6408 46.4351V44.9986C87.6408 44.8372 87.5924 44.7081 87.4955 44.6435C87.3987 44.579 87.2211 44.5305 86.9952 44.4983C86.9468 44.4983 86.9145 44.466 86.8983 44.4337C86.8822 44.4014 86.8661 44.353 86.8661 44.3207C86.8661 44.2723 86.8661 44.2239 86.8822 44.1755C87.0597 44.1755 87.2696 44.1916 87.4794 44.2077C87.7054 44.2077 87.8829 44.2077 88.0443 44.2077C88.2057 44.2077 88.3994 44.2077 88.6092 44.2077C88.819 44.2077 88.9966 44.1916 89.158 44.1755C89.158 44.24 89.1741 44.2884 89.1741 44.3207C89.1741 44.3853 89.1741 44.4176 89.1418 44.4498C89.1257 44.466 89.0934 44.4821 89.0611 44.4983C88.8674 44.5305 88.7222 44.5628 88.6415 44.6274C88.5608 44.6919 88.5285 44.7726 88.5285 44.9018V46.5642C88.5285 46.5642 88.5285 46.661 88.4801 46.7095C88.4478 46.7417 88.3671 46.774 88.2218 46.8063L88.1896 46.8386Z" fill="#FE3939"/>
<path id="Vector_13" d="M91.4499 41.1735V43.5784H92.9186C93.0477 43.5784 93.1284 43.5138 93.193 43.4008C93.2575 43.2878 93.2898 43.1264 93.3221 42.9489C93.3382 42.8682 93.4028 42.8198 93.4835 42.8198C93.4996 42.8198 93.5319 42.8198 93.5642 42.8198C93.5965 42.8198 93.6126 42.8198 93.6449 42.8359C93.6449 42.9812 93.6288 43.1264 93.6126 43.304C93.5965 43.4815 93.6126 43.6268 93.6126 43.7559C93.6126 43.8689 93.6126 43.998 93.6126 44.1433C93.6126 44.2885 93.6288 44.4661 93.6449 44.6597C93.5965 44.6597 93.5481 44.6759 93.4996 44.6759C93.4028 44.6759 93.3382 44.6275 93.3221 44.5468C93.2898 44.3692 93.2414 44.224 93.193 44.0948C93.1446 43.9657 93.0477 43.9173 92.9186 43.9173H91.4499V46.1285C91.4499 46.2576 91.5306 46.3544 91.7081 46.3867C91.8856 46.419 92.16 46.4513 92.5474 46.4513H93.0639C93.2414 46.4513 93.4028 46.419 93.5319 46.3706C93.661 46.3222 93.7902 46.2415 93.887 46.1608C93.9838 46.0801 94.0807 45.9671 94.1614 45.838C94.2421 45.7088 94.3228 45.5797 94.4035 45.4183C94.4196 45.3699 94.4681 45.3538 94.5488 45.3538C94.581 45.3538 94.6133 45.3538 94.6456 45.386C94.6779 45.4022 94.7102 45.4183 94.7424 45.4345C94.694 45.5474 94.6295 45.6927 94.5972 45.8541C94.5649 46.0155 94.5165 46.1769 94.4842 46.3222C94.4519 46.4674 94.4035 46.5966 94.3712 46.7095C94.3228 46.8225 94.2744 46.8709 94.2098 46.8709C94.1614 46.8709 94.0807 46.8709 94 46.8709C93.9032 46.8709 93.8063 46.8709 93.6933 46.8709C93.5803 46.8709 93.4674 46.8709 93.3544 46.8709C93.2414 46.8709 93.1446 46.8709 93.0639 46.8709H91.0141C90.8365 46.8709 90.6428 46.8709 90.433 46.8709C90.2232 46.8709 90.0295 46.8871 89.8358 46.9032C89.8358 46.8387 89.8197 46.7902 89.8197 46.758C89.8197 46.6773 89.852 46.6288 89.9165 46.6127C90.1586 46.5643 90.32 46.5159 90.433 46.4674C90.5299 46.419 90.5944 46.3383 90.5944 46.2092V41.4317C90.5944 41.3026 90.546 41.2219 90.4653 41.1735C90.3685 41.1251 90.1909 41.0766 89.9327 41.0282C89.8681 41.0282 89.8358 40.9637 89.8358 40.8668C89.8358 40.8345 89.8358 40.8023 89.8358 40.7861C89.8358 40.77 89.8358 40.7377 89.8358 40.7216C90.1102 40.7377 90.3362 40.7538 90.5137 40.7538C90.6913 40.7538 90.8527 40.7538 90.9979 40.7538H92.8379C93.1123 40.7538 93.3705 40.7538 93.5642 40.7216C93.7579 40.6893 93.9031 40.6893 93.9838 40.6893C94.0645 40.6893 94.113 40.7377 94.1453 40.8507C94.1775 40.9475 94.1937 41.0766 94.2098 41.2219C94.2259 41.3672 94.2582 41.5124 94.2744 41.6738C94.3067 41.8352 94.3389 41.9805 94.4196 42.0935C94.3712 42.1257 94.3067 42.1419 94.2582 42.1419C94.1775 42.1419 94.1291 42.1096 94.0968 42.0612C94.0161 41.8998 93.9516 41.7545 93.887 41.6415C93.8224 41.5286 93.7417 41.4317 93.6449 41.351C93.5481 41.2703 93.4512 41.2219 93.3221 41.1896C93.193 41.1573 93.0316 41.1412 92.854 41.1412H91.466L91.4499 41.1735Z" fill="#FE3939"/>
<path id="Vector_14" d="M101.247 40.9636C101.247 40.9636 101.279 40.9152 101.295 40.8829C101.295 40.8506 101.344 40.8345 101.376 40.8345C101.408 40.8345 101.457 40.8184 101.521 40.8022C101.586 40.8022 101.667 40.8022 101.78 40.8022C101.828 40.8022 101.893 40.8022 101.973 40.8022C102.054 40.8022 102.135 40.8022 102.231 40.8022C102.328 40.8022 102.425 40.8022 102.522 40.8022C102.619 40.8022 102.716 40.8022 102.796 40.7861C102.796 40.8506 102.812 40.8991 102.812 40.9313C102.812 41.0282 102.78 41.0766 102.716 41.0927C102.49 41.125 102.344 41.1734 102.264 41.2219C102.183 41.2703 102.151 41.351 102.151 41.4317C102.151 41.4317 102.151 41.5285 102.151 41.6738C102.151 41.819 102.167 42.0934 102.199 42.4646C102.231 42.8359 102.248 43.3362 102.264 43.9495C102.296 44.5629 102.328 45.3376 102.361 46.2576C102.361 46.3705 102.409 46.4674 102.49 46.5158C102.57 46.5642 102.716 46.6127 102.942 46.6611C102.974 46.6611 102.99 46.6772 103.006 46.7095C103.006 46.7418 103.022 46.7741 103.022 46.8063C103.022 46.8386 103.022 46.887 103.006 46.9516C102.78 46.9516 102.587 46.9355 102.409 46.9193C102.231 46.9032 102.07 46.9193 101.909 46.9193C101.844 46.9193 101.763 46.9193 101.667 46.9193C101.57 46.9193 101.473 46.9193 101.376 46.9193C101.279 46.9193 101.166 46.9193 101.069 46.9193C100.973 46.9193 100.876 46.9193 100.811 46.9355C100.811 46.8709 100.795 46.8225 100.795 46.7902C100.795 46.6934 100.827 46.6449 100.892 46.6449C101.134 46.5965 101.311 46.5481 101.408 46.4997C101.505 46.4512 101.537 46.3705 101.537 46.2414C101.537 46.2253 101.537 46.1123 101.537 45.9025C101.537 45.6927 101.521 45.4344 101.505 45.1278C101.505 44.8211 101.473 44.4822 101.457 44.1271C101.441 43.772 101.424 43.433 101.408 43.1264C101.408 42.8036 101.376 42.5453 101.36 42.3032C101.36 42.0773 101.344 41.932 101.344 41.8836L99.294 46.8386C99.294 46.8386 99.2455 46.9355 99.2294 46.9677C99.2133 47 99.181 47.0162 99.1325 47.0162C99.0841 47.0162 99.068 47.0162 99.0519 47.0162L96.76 41.7545C96.76 41.7545 96.76 41.9643 96.7438 42.2064C96.7277 42.4485 96.7277 42.739 96.7115 43.0618C96.6954 43.3846 96.6793 43.7397 96.6631 44.1109C96.647 44.4822 96.6308 44.8211 96.6147 45.1278C96.6147 45.4344 96.5824 45.7088 96.5824 45.9186C96.5824 46.1284 96.5824 46.2414 96.5824 46.2576C96.5824 46.4512 96.7922 46.5804 97.228 46.6611C97.2926 46.6611 97.3249 46.7095 97.3249 46.8063C97.3249 46.8386 97.3249 46.887 97.3087 46.9516C97.1473 46.9516 96.9698 46.9355 96.8084 46.9193C96.647 46.9032 96.5017 46.9193 96.3726 46.9193C96.2758 46.9193 96.1305 46.9193 95.9691 46.9193C95.8077 46.9193 95.6463 46.9355 95.4849 46.9516C95.4849 46.887 95.4688 46.8386 95.4688 46.8063C95.4688 46.7256 95.501 46.6772 95.5656 46.6611C95.727 46.6288 95.8722 46.5804 95.9691 46.5319C96.0659 46.4674 96.1305 46.3867 96.1466 46.2576C96.1466 46.2091 96.1466 46.0477 96.1628 45.7895C96.1628 45.5313 96.1951 45.2246 96.2112 44.8695C96.2112 44.5144 96.2435 44.1271 96.2596 43.7397C96.2758 43.3362 96.2919 42.965 96.308 42.626C96.308 42.2871 96.3403 41.9966 96.3403 41.7868C96.3403 41.5608 96.3403 41.4478 96.3403 41.4478C96.3403 41.351 96.308 41.2703 96.2273 41.2219C96.1466 41.1734 96.0014 41.125 95.7754 41.0927C95.7108 41.0927 95.6786 41.0282 95.6786 40.9313C95.6786 40.8991 95.6786 40.8506 95.6947 40.7861C95.7754 40.7861 95.8722 40.7861 95.9691 40.8022C96.0659 40.8022 96.1789 40.8022 96.2758 40.8022C96.3726 40.8022 96.4694 40.8022 96.5663 40.8022C96.6631 40.8022 96.7277 40.8022 96.7922 40.8022C96.9052 40.8022 96.9859 40.8022 97.0505 40.8022C97.115 40.8022 97.1635 40.8184 97.1957 40.8345C97.228 40.8506 97.2603 40.8668 97.2764 40.8829C97.2764 40.9152 97.3087 40.9313 97.3249 40.9636L99.3262 45.6442L101.231 40.9636H101.247Z" fill="#FE3939"/>
<path id="Vector_15" d="M105.556 41.1735V43.5784H107.025C107.154 43.5784 107.235 43.5138 107.299 43.4008C107.364 43.2878 107.396 43.1264 107.429 42.9489C107.445 42.8682 107.509 42.8198 107.59 42.8198C107.606 42.8198 107.638 42.8198 107.671 42.8198C107.703 42.8198 107.719 42.8198 107.751 42.8359C107.751 42.9812 107.735 43.1264 107.719 43.304C107.703 43.4815 107.719 43.6268 107.719 43.7559C107.719 43.8689 107.719 43.998 107.719 44.1433C107.719 44.2885 107.735 44.4661 107.751 44.6597C107.703 44.6597 107.655 44.6759 107.606 44.6759C107.509 44.6759 107.445 44.6275 107.429 44.5468C107.396 44.3692 107.348 44.224 107.299 44.0948C107.251 43.9657 107.154 43.9173 107.025 43.9173H105.556V46.1285C105.556 46.2576 105.637 46.3544 105.815 46.3867C105.992 46.419 106.266 46.4513 106.654 46.4513H107.17C107.348 46.4513 107.509 46.419 107.638 46.3706C107.767 46.3222 107.897 46.2415 107.993 46.1608C108.09 46.0801 108.187 45.9671 108.268 45.838C108.349 45.7088 108.429 45.5797 108.51 45.4183C108.526 45.3699 108.574 45.3538 108.655 45.3538C108.687 45.3538 108.72 45.3538 108.752 45.386C108.784 45.4022 108.817 45.4183 108.849 45.4345C108.8 45.5474 108.736 45.6927 108.704 45.8541C108.671 46.0155 108.623 46.1769 108.591 46.3222C108.558 46.4674 108.51 46.5966 108.478 46.7095C108.429 46.8225 108.381 46.8709 108.316 46.8709C108.268 46.8709 108.187 46.8709 108.106 46.8709C108.01 46.8709 107.913 46.8709 107.8 46.8709C107.687 46.8709 107.574 46.8709 107.461 46.8709C107.348 46.8709 107.251 46.8709 107.17 46.8709H105.121C104.943 46.8709 104.749 46.8709 104.539 46.8709C104.33 46.8709 104.136 46.8871 103.942 46.9032C103.942 46.8387 103.926 46.7902 103.926 46.758C103.926 46.6773 103.958 46.6288 104.023 46.6127C104.265 46.5643 104.426 46.5159 104.539 46.4674C104.636 46.419 104.701 46.3383 104.701 46.2092V41.4317C104.701 41.3026 104.652 41.2219 104.572 41.1735C104.475 41.1251 104.297 41.0766 104.039 41.0282C103.975 41.0282 103.942 40.9637 103.942 40.8668C103.942 40.8345 103.942 40.8023 103.942 40.7861C103.942 40.77 103.942 40.7377 103.942 40.7216C104.217 40.7377 104.443 40.7538 104.62 40.7538C104.798 40.7538 104.959 40.7538 105.104 40.7538H106.944C107.219 40.7538 107.477 40.7538 107.671 40.7216C107.864 40.6893 108.01 40.6893 108.09 40.6893C108.171 40.6893 108.219 40.7377 108.252 40.8507C108.284 40.9475 108.3 41.0766 108.316 41.2219C108.332 41.3672 108.365 41.5124 108.381 41.6738C108.413 41.8352 108.445 41.9805 108.526 42.0935C108.478 42.1257 108.413 42.1419 108.365 42.1419C108.284 42.1419 108.236 42.1096 108.203 42.0612C108.123 41.8998 108.058 41.7545 107.993 41.6415C107.929 41.5286 107.848 41.4317 107.751 41.351C107.655 41.2703 107.558 41.2219 107.429 41.1896C107.299 41.1573 107.138 41.1412 106.96 41.1412H105.572L105.556 41.1735Z" fill="#FE3939"/>
<path id="Vector_16" d="M114.433 45.3859V41.4639C114.433 41.3348 114.385 41.2218 114.288 41.1734C114.191 41.1249 114.014 41.0765 113.788 41.0442C113.723 41.0442 113.691 40.9797 113.691 40.8828C113.691 40.8506 113.691 40.8021 113.707 40.7376C113.868 40.7376 114.03 40.7537 114.191 40.7699C114.353 40.7699 114.514 40.7699 114.643 40.7699C114.772 40.7699 114.918 40.7699 115.079 40.7699C115.24 40.7699 115.37 40.7537 115.515 40.7376C115.515 40.8021 115.531 40.8506 115.531 40.8828C115.531 40.9797 115.499 41.0281 115.434 41.0442C115.224 41.0765 115.079 41.1249 114.998 41.1734C114.918 41.2218 114.885 41.3186 114.885 41.4477V46.9677C114.885 46.9677 114.853 46.9677 114.821 46.9677C114.788 46.9677 114.772 46.9677 114.74 46.9677C114.692 46.9677 114.659 46.9677 114.611 46.9354C114.563 46.9031 114.53 46.8708 114.482 46.8063L110.673 41.7867V46.2091C110.673 46.3382 110.721 46.4189 110.802 46.4673C110.883 46.5157 111.06 46.5642 111.302 46.6126C111.367 46.6126 111.399 46.6771 111.399 46.7578C111.399 46.7901 111.399 46.8385 111.383 46.9031C111.222 46.9031 111.076 46.887 110.915 46.8708C110.753 46.8547 110.608 46.8708 110.463 46.8708C110.334 46.8708 110.189 46.8708 110.027 46.8708C109.866 46.8708 109.704 46.887 109.575 46.9031C109.575 46.8385 109.559 46.7901 109.559 46.7578C109.559 46.6771 109.591 46.6287 109.656 46.6126C109.882 46.5642 110.027 46.5157 110.108 46.4673C110.189 46.4189 110.221 46.3382 110.221 46.2091V41.3832C110.221 41.2863 110.189 41.2056 110.108 41.1572C110.043 41.1088 109.882 41.0604 109.656 41.0281C109.591 41.0281 109.559 40.9635 109.559 40.8667C109.559 40.8344 109.559 40.8021 109.559 40.786C109.559 40.7699 109.559 40.7376 109.559 40.7214C109.688 40.7214 109.801 40.7376 109.914 40.7537C110.011 40.7537 110.124 40.7537 110.237 40.7537C110.35 40.7537 110.447 40.7537 110.544 40.7537C110.721 40.7537 110.85 40.7537 110.899 40.7699C110.963 40.7699 111.012 40.8183 111.044 40.8667L114.417 45.3536L114.433 45.3859Z" fill="#FE3939"/>
<path id="Vector_17" d="M119.405 41.1734V46.1768C119.405 46.3221 119.469 46.4189 119.582 46.4835C119.695 46.548 119.905 46.5803 120.179 46.6126C120.244 46.6126 120.276 46.661 120.276 46.7579C120.276 46.8063 120.276 46.8547 120.26 46.9193C120.066 46.9193 119.857 46.9031 119.631 46.887C119.405 46.8708 119.179 46.887 118.953 46.887C118.727 46.887 118.517 46.887 118.275 46.887C118.049 46.887 117.839 46.9031 117.629 46.9193C117.629 46.8547 117.613 46.8063 117.613 46.7579C117.613 46.6772 117.645 46.6287 117.71 46.6126C117.984 46.5803 118.194 46.5319 118.323 46.4673C118.452 46.4189 118.517 46.3059 118.517 46.1607V41.1572H117.549C117.355 41.1572 117.21 41.1734 117.08 41.2057C116.951 41.2379 116.838 41.3025 116.742 41.3671C116.645 41.4478 116.564 41.5446 116.499 41.6576C116.435 41.7706 116.354 41.9158 116.29 42.0772C116.29 42.1095 116.257 42.1257 116.225 42.1418C116.193 42.1579 116.177 42.1579 116.144 42.1579C116.08 42.1579 116.015 42.1418 115.967 42.1095C116.031 41.8836 116.08 41.6899 116.112 41.5123C116.144 41.3348 116.177 41.1895 116.193 41.0765C116.225 40.9636 116.241 40.8667 116.273 40.8022C116.306 40.7376 116.354 40.7053 116.403 40.7053C116.451 40.7053 116.516 40.7053 116.596 40.7053C116.677 40.7053 116.758 40.7053 116.855 40.7215C116.951 40.7215 117.032 40.7215 117.129 40.7376C117.226 40.7537 117.306 40.7376 117.387 40.7376H120.518C120.518 40.7376 120.68 40.7376 120.777 40.7376C120.873 40.7376 120.97 40.7376 121.051 40.7215C121.148 40.7215 121.228 40.7215 121.309 40.7053C121.39 40.7053 121.454 40.7053 121.503 40.7053C121.567 40.7053 121.616 40.7376 121.632 40.8022C121.648 40.8667 121.68 40.9636 121.713 41.0765C121.745 41.1895 121.761 41.3348 121.793 41.5123C121.826 41.6899 121.874 41.8836 121.939 42.0934C121.906 42.0934 121.874 42.1257 121.842 42.1257C121.81 42.1257 121.777 42.1418 121.745 42.1418C121.713 42.1418 121.697 42.1418 121.664 42.1257C121.632 42.1257 121.616 42.0934 121.6 42.0611C121.535 41.8997 121.454 41.7706 121.39 41.6414C121.325 41.5285 121.245 41.4316 121.148 41.3509C121.051 41.2702 120.954 41.2218 120.825 41.1895C120.696 41.1572 120.534 41.1411 120.357 41.1411H119.389L119.405 41.1734Z" fill="#FE3939"/>
<path id="Vector_18" d="M127.507 47C126.974 47 126.522 46.9193 126.135 46.7579C125.748 46.5965 125.409 46.3706 125.15 46.08C124.892 45.7895 124.699 45.4667 124.569 45.0793C124.44 44.692 124.376 44.2885 124.376 43.8366C124.376 43.4653 124.44 43.0941 124.569 42.7229C124.699 42.3517 124.892 42.0127 125.15 41.7061C125.409 41.3994 125.732 41.1573 126.135 40.9636C126.522 40.7699 126.99 40.6731 127.507 40.6731C127.717 40.6731 127.894 40.6731 128.072 40.6731C128.249 40.6731 128.411 40.7054 128.572 40.7215C128.734 40.7377 128.879 40.7699 129.024 40.8022C129.169 40.8345 129.331 40.8829 129.492 40.9152C129.492 41.0766 129.524 41.2864 129.557 41.5285C129.589 41.7706 129.637 42.0127 129.702 42.271C129.654 42.3032 129.605 42.3032 129.557 42.3032C129.508 42.3032 129.46 42.3032 129.428 42.2871C129.379 42.2871 129.363 42.2387 129.347 42.1903C129.234 41.7706 129.056 41.4801 128.814 41.3026C128.572 41.125 128.217 41.0443 127.749 41.0443C127.362 41.0443 127.023 41.1089 126.716 41.238C126.409 41.3671 126.167 41.5447 125.974 41.7706C125.78 41.9966 125.619 42.271 125.522 42.5776C125.425 42.8843 125.36 43.2394 125.36 43.6267C125.36 44.0625 125.425 44.4499 125.554 44.8211C125.683 45.1923 125.861 45.499 126.087 45.7572C126.313 46.0155 126.571 46.2253 126.861 46.3706C127.152 46.5158 127.475 46.5804 127.814 46.5804C128.088 46.5804 128.314 46.5481 128.491 46.4997C128.669 46.4513 128.83 46.3706 128.943 46.2737C129.073 46.1769 129.169 46.0478 129.25 45.9025C129.331 45.7572 129.411 45.5958 129.492 45.4021C129.541 45.3053 129.605 45.2569 129.718 45.2569C129.75 45.2569 129.783 45.2569 129.815 45.2569C129.847 45.2569 129.88 45.273 129.896 45.2892C129.815 45.5151 129.75 45.7411 129.67 46.0155C129.589 46.2899 129.524 46.5481 129.476 46.8063C129.169 46.8548 128.863 46.9032 128.54 46.9193C128.217 46.9355 127.878 46.9677 127.491 46.9677L127.507 47Z" fill="#FE3939"/>
<path id="Vector_19" d="M130.509 43.8366C130.509 43.4008 130.59 42.9973 130.751 42.6261C130.913 42.2387 131.122 41.9159 131.397 41.6254C131.671 41.3349 131.978 41.1089 132.333 40.9475C132.688 40.7861 133.059 40.6893 133.463 40.6893C134.012 40.6893 134.48 40.77 134.883 40.9475C135.287 41.1251 135.626 41.351 135.884 41.6415C136.142 41.9321 136.352 42.271 136.481 42.6422C136.61 43.0134 136.675 43.4169 136.675 43.8366C136.675 44.3369 136.594 44.7727 136.433 45.1601C136.271 45.5474 136.045 45.8864 135.755 46.1608C135.464 46.4352 135.141 46.645 134.754 46.7902C134.367 46.9355 133.963 47.0001 133.527 47.0001C133.092 47.0001 132.672 46.9194 132.301 46.7741C131.929 46.6288 131.607 46.4029 131.348 46.1285C131.09 45.8541 130.88 45.5152 130.735 45.1278C130.59 44.7404 130.509 44.3047 130.509 43.8366ZM133.737 46.5481C134.028 46.5481 134.302 46.4997 134.544 46.3867C134.786 46.2737 134.996 46.1123 135.174 45.9187C135.351 45.725 135.48 45.4829 135.577 45.2085C135.674 44.9341 135.722 44.6275 135.722 44.3047C135.722 43.8527 135.674 43.4331 135.577 43.0457C135.48 42.6584 135.335 42.3194 135.158 42.045C134.964 41.7545 134.722 41.5447 134.431 41.3672C134.141 41.2058 133.802 41.1251 133.414 41.1251C133.156 41.1251 132.914 41.1735 132.672 41.2703C132.43 41.3672 132.236 41.5124 132.059 41.69C131.881 41.8675 131.736 42.0935 131.639 42.3678C131.526 42.6422 131.478 42.9489 131.478 43.304C131.478 43.772 131.526 44.1917 131.623 44.5952C131.72 44.9987 131.865 45.3376 132.059 45.6281C132.252 45.9187 132.478 46.1446 132.769 46.306C133.043 46.4674 133.366 46.5481 133.737 46.5481Z" fill="#FE3939"/>
<path id="Vector_20" d="M143.308 40.9636C143.308 40.9636 143.34 40.9152 143.357 40.8829C143.357 40.8506 143.405 40.8345 143.437 40.8345C143.47 40.8345 143.518 40.8184 143.583 40.8022C143.647 40.7861 143.728 40.8022 143.841 40.8022C143.889 40.8022 143.954 40.8022 144.034 40.8022C144.115 40.8022 144.196 40.8022 144.293 40.8022C144.39 40.8022 144.486 40.8022 144.583 40.8022C144.68 40.8022 144.777 40.8022 144.858 40.7861C144.858 40.8506 144.874 40.8991 144.874 40.9313C144.874 41.0282 144.841 41.0766 144.777 41.0927C144.551 41.125 144.406 41.1734 144.325 41.2219C144.244 41.2703 144.212 41.351 144.212 41.4317C144.212 41.4317 144.212 41.5285 144.212 41.6738C144.212 41.819 144.228 42.0934 144.26 42.4646C144.293 42.8359 144.309 43.3362 144.325 43.9495C144.357 44.5629 144.39 45.3376 144.422 46.2576C144.422 46.3705 144.47 46.4674 144.551 46.5158C144.632 46.5642 144.777 46.6127 145.003 46.6611C145.035 46.6611 145.051 46.6772 145.067 46.7095C145.067 46.7418 145.084 46.7741 145.084 46.8063C145.084 46.8386 145.084 46.887 145.067 46.9516C144.841 46.9516 144.648 46.9355 144.47 46.9193C144.293 46.9032 144.131 46.9193 143.97 46.9193C143.905 46.9193 143.825 46.9193 143.728 46.9193C143.631 46.9193 143.534 46.9193 143.437 46.9193C143.34 46.9193 143.227 46.9193 143.131 46.9193C143.034 46.9193 142.937 46.9193 142.872 46.9355C142.872 46.8709 142.856 46.8225 142.856 46.7902C142.856 46.6934 142.889 46.6449 142.953 46.6449C143.195 46.5965 143.373 46.5481 143.47 46.4997C143.566 46.4512 143.599 46.3705 143.599 46.2414C143.599 46.2253 143.599 46.1123 143.599 45.9025C143.599 45.6927 143.583 45.4344 143.566 45.1278C143.566 44.8211 143.534 44.4822 143.518 44.1271C143.502 43.772 143.486 43.433 143.47 43.1264C143.47 42.8036 143.437 42.5453 143.421 42.3032C143.421 42.0773 143.405 41.932 143.405 41.8836L141.355 46.8386C141.355 46.8386 141.307 46.9355 141.291 46.9677C141.275 47 141.242 47.0162 141.194 47.0162C141.145 47.0162 141.129 47.0162 141.113 47.0162L138.821 41.7545C138.821 41.7545 138.821 41.9643 138.805 42.2064C138.789 42.4485 138.789 42.739 138.773 43.0618C138.773 43.4008 138.741 43.7397 138.724 44.1109C138.708 44.4822 138.692 44.8211 138.676 45.1278C138.676 45.4344 138.644 45.7088 138.644 45.9186C138.644 46.1284 138.644 46.2414 138.644 46.2576C138.644 46.4512 138.854 46.5804 139.289 46.6611C139.354 46.6611 139.386 46.7095 139.386 46.8063C139.386 46.8386 139.386 46.887 139.37 46.9516C139.209 46.9516 139.031 46.9355 138.87 46.9193C138.708 46.9032 138.563 46.9193 138.434 46.9193C138.337 46.9193 138.192 46.9193 138.03 46.9193C137.869 46.9193 137.708 46.9355 137.546 46.9516C137.546 46.887 137.53 46.8386 137.53 46.8063C137.53 46.7256 137.562 46.6772 137.627 46.6611C137.788 46.6288 137.934 46.5804 138.03 46.5319C138.127 46.4674 138.192 46.3867 138.208 46.2576C138.208 46.2091 138.208 46.0477 138.224 45.7895C138.224 45.5313 138.256 45.2246 138.272 44.8695C138.272 44.5144 138.305 44.1271 138.321 43.7397C138.337 43.3362 138.353 42.965 138.369 42.626C138.369 42.2871 138.402 41.9966 138.402 41.7868C138.402 41.5608 138.402 41.4478 138.402 41.4478C138.402 41.351 138.369 41.2703 138.289 41.2219C138.208 41.1734 138.063 41.125 137.837 41.0927C137.772 41.0927 137.74 41.0282 137.74 40.9313C137.74 40.8991 137.74 40.8506 137.756 40.7861C137.837 40.7861 137.934 40.7861 138.03 40.8022C138.127 40.8022 138.24 40.8022 138.337 40.8022C138.434 40.8022 138.531 40.8022 138.628 40.8022C138.724 40.8022 138.789 40.8022 138.854 40.8022C138.966 40.8022 139.047 40.8022 139.112 40.8022C139.176 40.8022 139.225 40.8184 139.257 40.8345C139.289 40.8345 139.322 40.8668 139.338 40.8829C139.338 40.9152 139.37 40.9313 139.386 40.9636L141.388 45.6442L143.292 40.9636H143.308Z" fill="#FE3939"/>
<path id="Vector_21" d="M147.618 44.24V46.1607C147.618 46.306 147.682 46.4028 147.827 46.4674C147.956 46.5319 148.166 46.5804 148.441 46.6126C148.521 46.6126 148.554 46.6772 148.554 46.774C148.554 46.8225 148.554 46.8709 148.538 46.9354C148.36 46.9354 148.15 46.9193 147.924 46.9032C147.698 46.887 147.44 46.9032 147.182 46.9032C147.02 46.9032 146.843 46.9032 146.633 46.9032C146.423 46.9032 146.229 46.9193 146.052 46.9354C146.052 46.8709 146.036 46.8225 146.036 46.7902C146.036 46.7095 146.068 46.6611 146.133 46.6449C146.375 46.5965 146.552 46.5481 146.633 46.4997C146.714 46.4512 146.762 46.3705 146.762 46.2414V41.4639C146.762 41.3348 146.714 41.2541 146.617 41.1896C146.52 41.125 146.342 41.0927 146.1 41.0604C146.036 41.0604 146.004 40.9959 146.004 40.899C146.004 40.8506 146.004 40.8022 146.02 40.7538C146.197 40.7538 146.375 40.7699 146.585 40.7861C146.794 40.8022 146.972 40.7861 147.149 40.7861H148.473C149.151 40.7861 149.651 40.9475 149.99 41.2703C150.329 41.5931 150.49 41.9966 150.49 42.5131C150.49 42.7067 150.442 42.9166 150.361 43.1264C150.265 43.3362 150.135 43.5137 149.974 43.6913C149.813 43.8688 149.587 43.9979 149.328 44.0948C149.07 44.2078 148.796 44.2562 148.473 44.2562H147.666L147.618 44.24ZM148.118 43.8527C148.554 43.8527 148.893 43.7558 149.135 43.5622C149.377 43.3685 149.49 43.0457 149.49 42.5776C149.49 42.3839 149.474 42.2064 149.425 42.0289C149.377 41.8513 149.312 41.7061 149.199 41.5769C149.086 41.4478 148.957 41.351 148.78 41.2703C148.602 41.1896 148.392 41.1573 148.118 41.1573H147.618V43.8365H148.118V43.8527Z" fill="#FE3939"/>
<path id="Vector_22" d="M153.864 44.6436H151.766L151.168 46.1607C151.168 46.1607 151.12 46.306 151.12 46.3544C151.12 46.4835 151.314 46.5804 151.685 46.6288C151.733 46.6288 151.766 46.6449 151.782 46.6772C151.782 46.7095 151.798 46.7418 151.798 46.7741C151.798 46.8063 151.798 46.8548 151.782 46.9193C151.62 46.9193 151.443 46.9032 151.249 46.887C151.055 46.8709 150.878 46.887 150.7 46.887C150.571 46.887 150.442 46.887 150.313 46.887C150.184 46.887 150.039 46.9032 149.893 46.9193C149.893 46.8709 149.877 46.8225 149.877 46.7741C149.877 46.7256 149.877 46.6934 149.893 46.6611C149.893 46.6288 149.942 46.6127 149.99 46.6127C150.184 46.5804 150.329 46.5481 150.426 46.4997C150.523 46.4513 150.587 46.3867 150.636 46.2737L152.895 40.8345C152.944 40.7215 152.992 40.6731 153.073 40.6731C153.105 40.6731 153.138 40.6731 153.186 40.6892L155.462 46.2899C155.494 46.3706 155.591 46.4513 155.72 46.4997C155.849 46.5481 155.978 46.5804 156.107 46.5965C156.14 46.5965 156.172 46.6288 156.204 46.6449C156.22 46.6611 156.236 46.7095 156.236 46.7579C156.236 46.7902 156.236 46.8386 156.22 46.9032C156.027 46.9032 155.817 46.887 155.623 46.8709C155.429 46.8548 155.252 46.8709 155.074 46.8709C154.897 46.8709 154.703 46.8709 154.477 46.8709C154.251 46.8709 154.041 46.887 153.864 46.9032C153.864 46.8386 153.848 46.7902 153.848 46.7579C153.848 46.7095 153.848 46.6611 153.88 46.6449C153.896 46.6288 153.928 46.6127 153.944 46.6127C154.106 46.5804 154.235 46.5481 154.332 46.4997C154.429 46.4513 154.477 46.4028 154.477 46.3221C154.477 46.2899 154.477 46.2414 154.445 46.1769L153.848 44.6274L153.864 44.6436ZM153.719 44.2562L152.847 41.9643L151.943 44.2562H153.719Z" fill="#FE3939"/>
<path id="Vector_23" d="M161.563 45.3859V41.4639C161.563 41.3348 161.514 41.2218 161.417 41.1734C161.321 41.1249 161.143 41.0765 160.917 41.0442C160.852 41.0442 160.82 40.9797 160.82 40.8828C160.82 40.8506 160.82 40.8021 160.836 40.7376C160.998 40.7376 161.159 40.7537 161.321 40.7699C161.482 40.7699 161.643 40.7699 161.772 40.7699C161.902 40.7699 162.047 40.7699 162.208 40.7699C162.37 40.7699 162.499 40.7537 162.644 40.7376C162.644 40.8021 162.66 40.8506 162.66 40.8828C162.66 40.9797 162.628 41.0281 162.563 41.0442C162.354 41.0765 162.208 41.1249 162.128 41.1734C162.047 41.2218 162.015 41.3186 162.015 41.4477V46.9677C162.015 46.9677 161.982 46.9677 161.95 46.9677C161.918 46.9677 161.902 46.9677 161.869 46.9677C161.821 46.9677 161.789 46.9677 161.74 46.9354C161.708 46.9192 161.66 46.8708 161.611 46.8063L157.802 41.7867V46.2091C157.802 46.3382 157.85 46.4189 157.931 46.4673C158.012 46.5157 158.189 46.5642 158.431 46.6126C158.496 46.6126 158.528 46.6771 158.528 46.7578C158.528 46.7901 158.528 46.8385 158.512 46.9031C158.351 46.9031 158.206 46.887 158.044 46.8708C157.883 46.8547 157.737 46.8708 157.592 46.8708C157.463 46.8708 157.318 46.8708 157.156 46.8708C156.995 46.8708 156.834 46.887 156.704 46.9031C156.704 46.8385 156.688 46.7901 156.688 46.7578C156.688 46.6771 156.721 46.6287 156.785 46.6126C157.011 46.5642 157.156 46.5157 157.237 46.4673C157.318 46.4189 157.35 46.3382 157.35 46.2091V41.3832C157.35 41.2863 157.318 41.2056 157.237 41.1572C157.173 41.1088 157.011 41.0604 156.785 41.0281C156.721 41.0281 156.688 40.9635 156.688 40.8667C156.688 40.8344 156.688 40.8021 156.688 40.786C156.688 40.7699 156.688 40.7376 156.688 40.7214C156.817 40.7214 156.93 40.7376 157.043 40.7537C157.14 40.7537 157.253 40.7537 157.366 40.7537C157.479 40.7537 157.576 40.7537 157.673 40.7537C157.85 40.7537 157.98 40.7537 158.028 40.7699C158.093 40.7699 158.141 40.8183 158.173 40.8667L161.547 45.3536L161.563 45.3859Z" fill="#FE3939"/>
<path id="Vector_24" d="M165.372 44.1755L163.806 41.3671C163.742 41.2702 163.661 41.2057 163.564 41.1573C163.467 41.1088 163.338 41.0766 163.177 41.0443C163.144 41.0443 163.128 41.012 163.112 40.9959C163.112 40.9636 163.096 40.9313 163.096 40.8829V40.8344C163.096 40.8344 163.096 40.8022 163.096 40.786C163.096 40.7699 163.096 40.7537 163.096 40.7376C163.225 40.7376 163.403 40.7538 163.629 40.7699C163.838 40.7699 164.048 40.7699 164.242 40.7699C164.323 40.7699 164.403 40.7699 164.5 40.7699C164.597 40.7699 164.71 40.7699 164.807 40.7699C164.92 40.7699 165.017 40.7699 165.113 40.7699C165.21 40.7699 165.291 40.7699 165.356 40.7538C165.356 40.786 165.356 40.8022 165.356 40.8183C165.356 40.8345 165.356 40.8506 165.356 40.8667V40.899C165.356 40.9313 165.356 40.9636 165.339 40.9959C165.339 41.0281 165.307 41.0443 165.275 41.0443C165.097 41.0766 164.968 41.0927 164.888 41.1411C164.807 41.1895 164.775 41.2218 164.775 41.2864C164.775 41.3348 164.791 41.3994 164.839 41.4639L166.001 43.5621L167.099 41.6092C167.163 41.4962 167.196 41.4155 167.196 41.3509C167.196 41.2702 167.147 41.2057 167.066 41.1573C166.986 41.1088 166.857 41.0766 166.663 41.0443C166.598 41.0443 166.566 40.9797 166.566 40.8829C166.566 40.8506 166.566 40.8183 166.566 40.8022C166.566 40.786 166.566 40.7537 166.566 40.7376C166.695 40.7376 166.857 40.7538 167.05 40.7699C167.228 40.7699 167.405 40.7699 167.567 40.7699C167.712 40.7699 167.857 40.7699 168.019 40.7699C168.18 40.7699 168.341 40.7537 168.487 40.7376C168.487 40.7699 168.487 40.786 168.487 40.8022C168.487 40.8183 168.487 40.8345 168.487 40.8506V40.8829C168.487 40.9636 168.454 41.0281 168.39 41.0443C168.164 41.0766 168.019 41.1088 167.922 41.1573C167.825 41.2057 167.76 41.2864 167.696 41.3994L166.179 44.0948V46.193C166.179 46.3382 166.227 46.4189 166.34 46.4835C166.437 46.5319 166.614 46.5803 166.857 46.6126C166.921 46.6126 166.953 46.6772 166.953 46.7579C166.953 46.7579 166.953 46.7902 166.953 46.8063C166.953 46.8224 166.953 46.8386 166.953 46.8547C166.953 46.887 166.953 46.9031 166.953 46.9031C166.808 46.9031 166.663 46.9031 166.518 46.887C166.389 46.887 166.259 46.887 166.114 46.8709C165.969 46.8709 165.856 46.8709 165.743 46.8709C165.63 46.8709 165.517 46.8709 165.372 46.8709C165.226 46.8709 165.097 46.8709 164.984 46.887C164.839 46.887 164.694 46.887 164.549 46.9031C164.549 46.9031 164.549 46.8709 164.549 46.8547C164.549 46.8547 164.549 46.8224 164.549 46.8063V46.7579C164.549 46.6772 164.581 46.6287 164.645 46.6126C164.887 46.5642 165.065 46.5158 165.178 46.4674C165.291 46.4189 165.339 46.3221 165.339 46.193V44.1755H165.372Z" fill="#FE3939"/>
</g>
<g id="Group_3">
<path id="Vector_25" d="M1.88839 0H46.5158C47.5649 0 48.4042 0.823146 48.4042 1.83997V45.16C48.4042 46.1769 47.5488 47 46.5158 47H1.88839C0.839286 47 0 46.1769 0 45.16V1.83997C0 0.823146 0.855426 0 1.88839 0Z" fill="white"/>
<path id="Vector_26" d="M48.4042 19.9491V45.1277C48.4042 46.1445 47.5649 46.9838 46.5319 46.9838H17.3667C16.011 45.3698 14.9134 43.5298 14.1226 41.5607C13.1703 39.2043 12.6538 36.6541 12.6538 33.9587C12.6538 22.6445 21.9182 13.4769 33.3293 13.4769C36.8317 13.4769 40.1404 14.3324 43.0295 15.8657C45.047 16.9309 46.8708 18.319 48.4203 19.9491H48.4042Z" fill="#5884FF"/>
<path id="Vector_27" d="M48.4042 14.4454C48.2751 14.3163 48.1298 14.2033 48.0007 14.0742C47.7586 13.8482 47.3874 13.8643 47.1776 14.1064C46.887 14.4292 46.5965 14.7359 46.306 15.0587C46.2253 15.1394 46.1607 15.2201 46.0962 15.3008C45.7734 15.6559 45.4506 16.011 45.1278 16.366C45.0309 16.4629 44.9341 16.5759 44.8534 16.6727C44.7243 16.818 44.5951 16.9632 44.466 17.1085C43.8527 17.7864 43.5783 17.1731 41.2057 16.0271C41.1734 16.011 41.125 15.9948 41.0927 15.9787C39.2205 15.5268 38.8493 15.5106 38.8977 14.7359C38.8977 14.5745 38.9138 14.4131 38.93 14.2678C38.9461 13.945 38.9622 13.6222 38.9784 13.2994C38.9784 13.1703 38.9784 13.0412 38.9945 12.9121C38.9945 12.8475 38.9945 12.7829 38.9945 12.7184C38.9945 12.557 38.9945 12.3794 39.0107 12.218C39.0107 12.0566 39.0107 11.8791 39.0268 11.7177C39.0268 11.5563 39.0268 11.3788 39.0429 11.2174C39.0429 11.056 39.0429 10.8784 39.0591 10.717C39.0591 10.3942 38.817 10.1198 38.4942 10.1037L31.4732 9.78088C31.1504 9.78088 30.876 10.0068 30.8599 10.3296C30.8599 10.4426 30.8599 10.5556 30.8438 10.6524C30.8438 10.7654 30.8438 10.8784 30.8276 10.9753V11.1044C30.8115 11.2496 30.7953 11.3949 30.7953 11.5402C30.7631 12.218 30.7146 12.8798 30.6824 13.5577C30.6824 13.6222 30.6824 13.7029 30.6824 13.7675C30.6824 13.7836 30.6824 13.8159 30.6824 13.8321C30.6824 13.8966 30.6824 13.9612 30.6824 14.0419C30.6824 14.1226 30.6824 14.2194 30.6824 14.3001C30.6662 14.8327 30.5048 15.0264 29.9722 15.1555C28.6487 15.4945 27.3414 15.8657 26.0824 16.366C25.4207 16.6243 25.0979 16.5436 24.7105 15.9787C24.6621 15.898 24.5975 15.8173 24.5491 15.7527C24.4846 15.6559 24.42 15.5752 24.3554 15.4783C24.307 15.4138 24.2586 15.3492 24.2102 15.2847C24.1456 15.204 24.0972 15.1233 24.0326 15.0587C23.839 14.8005 23.6453 14.5422 23.4516 14.284C23.387 14.2033 23.3225 14.1064 23.2579 14.0257C22.9997 13.6868 22.7253 13.3478 22.467 12.9928C22.2734 12.7345 21.9021 12.6861 21.6439 12.8798C19.7394 14.3324 17.8994 15.7366 16.0271 17.1731C15.7689 17.3667 15.7205 17.738 15.9142 17.9962C16.2531 18.4481 16.592 18.8839 16.9148 19.3197C17.044 19.4972 17.1731 19.6586 17.3022 19.8362C17.3668 19.9169 17.4313 20.0137 17.4959 20.0944C17.7703 20.4495 18.0447 20.8046 18.319 21.1435C18.6257 21.5309 18.6096 21.7891 18.319 22.1926C17.4959 23.3709 16.705 24.5814 15.9949 25.8242C15.7205 26.3084 15.4784 26.3891 14.978 26.2599C14.8489 26.2277 14.7198 26.1954 14.5745 26.1631C14.5261 26.1631 14.4938 26.147 14.4454 26.1308C14.3324 26.0985 14.2356 26.0824 14.1226 26.0501C14.0096 26.0178 13.8805 26.0017 13.7675 25.9694C13.6545 25.9371 13.5577 25.921 13.4447 25.8887C13.1219 25.808 12.7991 25.7435 12.4763 25.6789C12.2665 25.6305 12.0405 25.5821 11.8307 25.5336C11.6047 25.4852 11.3949 25.4368 11.169 25.3884C10.8462 25.3238 10.5395 25.5175 10.4749 25.8403L8.92549 32.716C8.86093 33.0388 9.05461 33.3454 9.36127 33.41C9.92618 33.5391 10.4911 33.6682 11.0398 33.7974C11.3626 33.8619 11.6693 33.9426 11.976 34.0072C12.3633 34.0879 12.7507 34.1686 13.1542 34.2493C13.6545 34.3461 13.8644 34.5237 13.9128 35.0724C14.058 36.5573 14.3001 38.0261 14.4615 39.511C14.4777 39.7369 14.3163 40.092 14.1387 40.205C14.0903 40.2373 14.0419 40.2696 13.9935 40.3018C13.9451 40.3341 13.8966 40.3503 13.8482 40.3825C13.8482 40.3825 13.8482 40.3825 13.8321 40.3825C13.7837 40.4148 13.7352 40.431 13.6868 40.4632C13.6384 40.4955 13.59 40.5117 13.5577 40.5439C13.3479 40.6569 13.1381 40.7699 12.9282 40.8667C12.8637 40.899 12.783 40.9313 12.7184 40.9797C12.6539 41.012 12.5732 41.0443 12.5086 41.0927C12.444 41.125 12.3633 41.1573 12.2988 41.2057C12.2342 41.238 12.1535 41.2702 12.089 41.3187C11.5563 41.593 11.0237 41.8674 10.4749 42.1579C10.1844 42.3032 10.0714 42.6583 10.2167 42.9488L12.2988 46.9677V47.0161H46.5158C47.5649 47.0161 48.4042 46.1607 48.4042 45.1277V14.5422M37.6226 44.4983C36.2991 45.0147 34.8465 45.273 33.3293 45.1923C28.455 44.9502 24.5007 41.4155 23.5161 36.864C23.3386 36.0086 23.2579 35.1047 23.2902 34.1847C23.5646 28.4227 28.5519 23.8873 34.3139 24.1779C35.2823 24.2263 36.2023 24.4038 37.09 24.6943C41.4801 26.1308 44.5467 30.3595 44.3208 35.1854C44.1916 37.8001 43.1264 40.1404 41.464 41.8997C40.3987 43.0295 39.0914 43.9172 37.6226 44.4983Z" fill="#030F3E"/>
<path id="Vector_28" d="M38.6234 23.3224C36.9771 22.4508 35.1209 21.9505 33.1196 21.9505C26.6474 21.9505 21.4019 27.196 21.4019 33.6682C21.4019 35.2015 21.6924 36.6703 22.2411 38.0099C23.9681 42.3355 28.1968 45.3859 33.1357 45.3859C39.6079 45.3859 44.8534 40.1404 44.8534 33.6682C44.8534 29.1813 42.3356 25.2915 38.6234 23.3063V23.3224Z" fill="#5884FF"/>
<path id="Vector_29" d="M48.4043 14.4939V14.5423L38.6234 23.3225C36.9771 22.451 35.121 21.9506 33.1196 21.9506C26.6474 21.9506 21.4019 27.1961 21.4019 33.6683C21.4019 35.2016 21.6924 36.6704 22.2412 38.01L12.2827 46.9355L10.2007 42.9166C10.0554 42.6261 10.1684 42.271 10.4589 42.1257C11.0077 41.8352 11.5403 41.5608 12.0729 41.2865C12.1375 41.2542 12.2182 41.2219 12.2827 41.1735C12.3473 41.1412 12.428 41.1089 12.4926 41.0605C12.5571 41.0121 12.6378 40.9959 12.7024 40.9475C12.7669 40.9152 12.8476 40.883 12.9122 40.8345C13.122 40.7216 13.3319 40.6247 13.5417 40.5117C13.5901 40.4795 13.6385 40.4633 13.6708 40.431C13.7192 40.3988 13.7676 40.3826 13.8161 40.3503C13.8161 40.3503 13.8161 40.3503 13.8322 40.3503C13.8806 40.3181 13.929 40.3019 13.9775 40.2696C14.0259 40.2374 14.0743 40.2051 14.1227 40.1728C14.3164 40.0598 14.4778 39.7047 14.4455 39.4788C14.2841 37.9939 14.0259 36.5251 13.8968 35.0402C13.8483 34.4915 13.6385 34.3139 13.1382 34.2171C12.7508 34.1364 12.3634 34.0557 11.9599 33.975C11.6533 33.9104 11.3305 33.8297 11.0238 33.7652C10.4751 33.636 9.91015 33.5069 9.34524 33.3778C9.03858 33.2971 8.82876 32.9904 8.90946 32.6838L10.4589 25.8081C10.5235 25.5014 10.8463 25.2916 11.1529 25.3562C11.3789 25.4046 11.5887 25.453 11.8147 25.5014C12.0406 25.5499 12.2505 25.5983 12.4603 25.6467C12.7831 25.7113 13.1059 25.792 13.4287 25.8565C13.5417 25.8727 13.6385 25.9049 13.7515 25.9372C13.8806 25.9695 13.9936 25.9856 14.1066 26.0179C14.2196 26.0502 14.3164 26.0663 14.4294 26.0986C14.4778 26.0986 14.5101 26.1148 14.5585 26.1309C14.6876 26.1632 14.8329 26.1955 14.962 26.2277C15.4623 26.3569 15.7044 26.2762 15.9788 25.792C16.689 24.5492 17.4799 23.3387 18.303 22.1604C18.5935 21.7408 18.6097 21.4987 18.303 21.1113C18.0286 20.7562 17.7542 20.4173 17.4799 20.0622C17.4153 19.9815 17.3507 19.8847 17.2862 19.804C17.1571 19.6264 17.0279 19.465 16.8988 19.2875C16.576 18.8517 16.2371 18.4159 15.8981 17.964C15.7044 17.7058 15.7529 17.3345 16.0111 17.1409C17.8834 15.7205 19.7233 14.3002 21.6279 12.8476C21.8861 12.6539 22.2573 12.7023 22.451 12.9606C22.7093 13.2995 22.9836 13.6385 23.2419 13.9935C23.3064 14.0742 23.371 14.1711 23.4356 14.2518C23.5485 14.397 23.6615 14.5584 23.7745 14.7037C23.8068 14.7521 23.8391 14.7844 23.8713 14.8328C23.9198 14.8974 23.9682 14.9619 24.0166 15.0265C24.0812 15.1072 24.1296 15.1718 24.1941 15.2525C24.2426 15.317 24.291 15.3816 24.3394 15.4461C24.404 15.543 24.4685 15.6237 24.5331 15.7205C24.5815 15.8012 24.6461 15.8819 24.6945 15.9465C25.098 16.5114 25.4047 16.5921 26.0664 16.3339C27.3253 15.8335 28.6488 15.4623 29.9562 15.1233C30.4888 14.9942 30.6502 14.8005 30.6663 14.2679C30.6663 14.1872 30.6663 14.0904 30.6663 14.0097C30.6663 13.9451 30.6663 13.8806 30.6663 13.7999C30.6663 13.7837 30.6663 13.7514 30.6663 13.7353C30.6663 13.6707 30.6663 13.59 30.6663 13.5255C30.6986 12.8476 30.7309 12.1858 30.7793 11.508C30.7793 11.3627 30.7955 11.2174 30.8116 11.0722V10.9431C30.8116 10.8301 30.8277 10.7171 30.8439 10.6203C30.8439 10.5073 30.8439 10.3943 30.86 10.2975C30.8762 9.97465 31.1505 9.73255 31.4733 9.74869L38.4943 10.0715C38.8171 10.0715 39.0753 10.362 39.0592 10.6848C39.0592 10.8462 39.0592 11.0238 39.043 11.1852C39.043 11.3466 39.043 11.5241 39.0269 11.6855C39.0269 11.8469 39.0269 12.0244 39.0108 12.1858C38.9946 12.3472 39.0108 12.5248 38.9946 12.6862C38.9946 12.7507 38.9946 12.8153 38.9946 12.8799C38.9946 13.009 38.9946 13.1381 38.9785 13.2672C38.9785 13.59 38.9462 13.9128 38.9301 14.2356C38.9301 14.397 38.9139 14.5584 38.8978 14.7037C38.8494 15.4946 39.2206 15.5107 41.0928 15.9465C41.1413 15.9465 41.1735 15.9788 41.2058 15.9949C43.5784 17.1409 43.8528 17.7703 44.4661 17.0763C44.5952 16.931 44.7244 16.7858 44.8535 16.6405C44.9503 16.5437 45.031 16.4307 45.1279 16.3339C45.4507 15.9788 45.7735 15.6237 46.0963 15.2686C46.1608 15.1879 46.2415 15.1072 46.3061 15.0265C46.5966 14.7198 46.8871 14.397 47.1777 14.0742C47.4036 13.8321 47.7748 13.816 48.0008 14.042C48.1299 14.1711 48.2752 14.2841 48.4043 14.4132C48.4204 14.4132 48.4043 14.4293 48.4043 14.4455V14.4939Z" fill="#030F3E"/>
</g>
</g>
<defs>
<clipPath id="clip0_523_1022">
<rect width="170.375" height="47" fill="white"/>
</clipPath>
</defs>
</svg>
